<svg xmlns="http://www.w3.org/2000/svg" xmlns:xlink="http://www.w3.org/1999/xlink" width="500" zoomAndPan="magnify" viewBox="0 0 375 374.999991" height="500" preserveAspectRatio="xMidYMid meet" version="1.0"><defs><clipPath id="c0507ce027"><path d="M 83.980469 8 L 290.980469 8 L 290.980469 42 L 83.980469 42 Z M 83.980469 8 " clip-rule="nonzero"/></clipPath><clipPath id="699dc9d9b7"><path d="M 83.980469 333 L 290.980469 333 L 290.980469 367 L 83.980469 367 Z M 83.980469 333 " clip-rule="nonzero"/></clipPath></defs><path fill="#79cab2" d="M 274.195312 33.636719 C 274.195312 33.636719 270.871094 181.753906 187.453125 189.152344 C 104.035156 181.671875 100.738281 33.636719 100.738281 33.636719 Z M 274.195312 33.636719 " fill-opacity="1" fill-rule="nonzero"/><g clip-path="url(#c0507ce027)"><path fill="#ef467d" d="M 100.550781 8.214844 L 274.355469 8.214844 C 274.898438 8.214844 275.441406 8.242188 275.980469 8.296875 C 276.519531 8.347656 277.054688 8.429688 277.589844 8.535156 C 278.121094 8.640625 278.644531 8.773438 279.164062 8.929688 C 279.683594 9.085938 280.195312 9.269531 280.695312 9.476562 C 281.199219 9.683594 281.6875 9.917969 282.167969 10.171875 C 282.644531 10.429688 283.109375 10.707031 283.5625 11.007812 C 284.011719 11.308594 284.449219 11.632812 284.867188 11.976562 C 285.289062 12.320312 285.6875 12.683594 286.074219 13.070312 C 286.457031 13.453125 286.820312 13.855469 287.164062 14.273438 C 287.507812 14.695312 287.832031 15.128906 288.132812 15.582031 C 288.433594 16.03125 288.714844 16.496094 288.96875 16.976562 C 289.226562 17.453125 289.457031 17.945312 289.664062 18.445312 C 289.871094 18.945312 290.054688 19.457031 290.210938 19.976562 C 290.371094 20.496094 290.5 21.019531 290.609375 21.554688 C 290.714844 22.085938 290.792969 22.621094 290.847656 23.164062 C 290.898438 23.703125 290.925781 24.242188 290.925781 24.785156 C 290.925781 25.328125 290.898438 25.871094 290.847656 26.410156 C 290.792969 26.949219 290.714844 27.488281 290.609375 28.019531 C 290.5 28.550781 290.371094 29.078125 290.210938 29.597656 C 290.054688 30.117188 289.871094 30.625 289.664062 31.128906 C 289.457031 31.628906 289.226562 32.121094 288.96875 32.597656 C 288.714844 33.078125 288.433594 33.542969 288.132812 33.992188 C 287.832031 34.445312 287.507812 34.878906 287.164062 35.300781 C 286.820312 35.71875 286.457031 36.121094 286.074219 36.503906 C 285.6875 36.886719 285.289062 37.25 284.867188 37.597656 C 284.449219 37.941406 284.011719 38.261719 283.5625 38.566406 C 283.109375 38.867188 282.644531 39.144531 282.167969 39.402344 C 281.6875 39.65625 281.199219 39.886719 280.695312 40.097656 C 280.195312 40.304688 279.683594 40.484375 279.164062 40.644531 C 278.644531 40.800781 278.121094 40.933594 277.589844 41.039062 C 277.054688 41.144531 276.519531 41.222656 275.980469 41.277344 C 275.441406 41.332031 274.898438 41.355469 274.355469 41.355469 L 100.550781 41.355469 C 100.007812 41.355469 99.464844 41.332031 98.925781 41.277344 C 98.386719 41.222656 97.851562 41.144531 97.316406 41.039062 C 96.785156 40.933594 96.257812 40.800781 95.742188 40.644531 C 95.222656 40.484375 94.710938 40.304688 94.210938 40.097656 C 93.707031 39.886719 93.21875 39.65625 92.738281 39.402344 C 92.261719 39.144531 91.796875 38.867188 91.34375 38.566406 C 90.894531 38.261719 90.457031 37.941406 90.039062 37.597656 C 89.617188 37.25 89.21875 36.886719 88.832031 36.503906 C 88.449219 36.121094 88.085938 35.71875 87.742188 35.300781 C 87.398438 34.878906 87.074219 34.445312 86.773438 33.992188 C 86.472656 33.542969 86.191406 33.078125 85.9375 32.597656 C 85.679688 32.121094 85.449219 31.628906 85.242188 31.128906 C 85.035156 30.625 84.851562 30.117188 84.695312 29.597656 C 84.535156 29.078125 84.402344 28.550781 84.296875 28.019531 C 84.191406 27.488281 84.113281 26.949219 84.058594 26.410156 C 84.007812 25.871094 83.980469 25.328125 83.980469 24.785156 C 83.980469 24.242188 84.007812 23.703125 84.058594 23.164062 C 84.113281 22.621094 84.191406 22.085938 84.296875 21.554688 C 84.402344 21.019531 84.535156 20.496094 84.695312 19.976562 C 84.851562 19.457031 85.035156 18.945312 85.242188 18.445312 C 85.449219 17.945312 85.679688 17.453125 85.9375 16.976562 C 86.191406 16.496094 86.472656 16.03125 86.773438 15.582031 C 87.074219 15.128906 87.398438 14.695312 87.742188 14.273438 C 88.085938 13.855469 88.449219 13.453125 88.832031 13.070312 C 89.21875 12.683594 89.617188 12.320312 90.039062 11.976562 C 90.457031 11.632812 90.894531 11.308594 91.34375 11.007812 C 91.796875 10.707031 92.261719 10.429688 92.738281 10.171875 C 93.21875 9.917969 93.707031 9.683594 94.210938 9.476562 C 94.710938 9.269531 95.222656 9.085938 95.742188 8.929688 C 96.257812 8.773438 96.785156 8.640625 97.316406 8.535156 C 97.851562 8.429688 98.386719 8.347656 98.925781 8.296875 C 99.464844 8.242188 100.007812 8.214844 100.550781 8.214844 Z M 100.550781 8.214844 " fill-opacity="1" fill-rule="nonzero"/></g><path fill="#79cab2" d="M 100.738281 341.402344 C 100.738281 341.402344 104.035156 193.230469 187.453125 185.800781 C 270.871094 193.285156 274.167969 341.320312 274.167969 341.320312 Z M 100.738281 341.402344 " fill-opacity="1" fill-rule="nonzero"/><g clip-path="url(#699dc9d9b7)"><path fill="#ef467d" d="M 274.355469 366.792969 L 100.550781 366.792969 C 100.007812 366.792969 99.464844 366.769531 98.925781 366.714844 C 98.386719 366.660156 97.851562 366.582031 97.316406 366.476562 C 96.785156 366.371094 96.257812 366.238281 95.742188 366.082031 C 95.222656 365.921875 94.710938 365.742188 94.210938 365.535156 C 93.707031 365.324219 93.21875 365.09375 92.738281 364.839844 C 92.261719 364.582031 91.796875 364.304688 91.34375 364.003906 C 90.894531 363.699219 90.457031 363.378906 90.039062 363.035156 C 89.617188 362.6875 89.21875 362.324219 88.832031 361.941406 C 88.449219 361.558594 88.085938 361.15625 87.742188 360.738281 C 87.398438 360.316406 87.074219 359.882812 86.773438 359.429688 C 86.472656 358.980469 86.191406 358.515625 85.9375 358.035156 C 85.679688 357.558594 85.449219 357.066406 85.242188 356.566406 C 85.035156 356.0625 84.851562 355.554688 84.695312 355.035156 C 84.535156 354.515625 84.402344 353.988281 84.296875 353.457031 C 84.191406 352.925781 84.113281 352.386719 84.058594 351.847656 C 84.007812 351.308594 83.980469 350.765625 83.980469 350.222656 C 83.980469 349.679688 84.007812 349.140625 84.058594 348.601562 C 84.113281 348.058594 84.191406 347.523438 84.296875 346.992188 C 84.402344 346.457031 84.535156 345.933594 84.695312 345.414062 C 84.851562 344.894531 85.035156 344.382812 85.242188 343.882812 C 85.449219 343.382812 85.679688 342.890625 85.9375 342.414062 C 86.191406 341.933594 86.472656 341.46875 86.773438 341.019531 C 87.074219 340.566406 87.398438 340.132812 87.742188 339.710938 C 88.085938 339.292969 88.449219 338.890625 88.832031 338.507812 C 89.21875 338.121094 89.617188 337.757812 90.039062 337.414062 C 90.457031 337.070312 90.894531 336.746094 91.34375 336.445312 C 91.796875 336.144531 92.261719 335.867188 92.738281 335.609375 C 93.21875 335.355469 93.707031 335.121094 94.210938 334.914062 C 94.710938 334.707031 95.222656 334.523438 95.742188 334.367188 C 96.257812 334.210938 96.785156 334.078125 97.316406 333.972656 C 97.851562 333.867188 98.386719 333.785156 98.925781 333.734375 C 99.464844 333.679688 100.007812 333.652344 100.550781 333.652344 L 274.355469 333.652344 C 274.898438 333.652344 275.441406 333.679688 275.980469 333.734375 C 276.519531 333.785156 277.054688 333.867188 277.589844 333.972656 C 278.121094 334.078125 278.644531 334.210938 279.164062 334.367188 C 279.683594 334.523438 280.195312 334.707031 280.695312 334.914062 C 281.199219 335.121094 281.6875 335.355469 282.167969 335.609375 C 282.644531 335.867188 283.109375 336.144531 283.5625 336.445312 C 284.011719 336.746094 284.449219 337.070312 284.867188 337.414062 C 285.289062 337.757812 285.6875 338.121094 286.074219 338.507812 C 286.457031 338.890625 286.820312 339.292969 287.164062 339.710938 C 287.507812 340.132812 287.832031 340.566406 288.132812 341.019531 C 288.433594 341.46875 288.714844 341.933594 288.96875 342.414062 C 289.226562 342.890625 289.457031 343.382812 289.664062 343.882812 C 289.871094 344.382812 290.054688 344.894531 290.210938 345.414062 C 290.371094 345.933594 290.5 346.457031 290.609375 346.992188 C 290.714844 347.523438 290.792969 348.058594 290.847656 348.601562 C 290.898438 349.140625 290.925781 349.679688 290.925781 350.222656 C 290.925781 350.765625 290.898438 351.308594 290.847656 351.847656 C 290.792969 352.386719 290.714844 352.925781 290.609375 353.457031 C 290.5 353.988281 290.371094 354.515625 290.210938 355.035156 C 290.054688 355.554688 289.871094 356.0625 289.664062 356.566406 C 289.457031 357.066406 289.226562 357.558594 288.96875 358.035156 C 288.714844 358.515625 288.433594 358.980469 288.132812 359.429688 C 287.832031 359.882812 287.507812 360.316406 287.164062 360.738281 C 286.820312 361.15625 286.457031 361.558594 286.074219 361.941406 C 285.6875 362.324219 285.289062 362.6875 284.867188 363.035156 C 284.449219 363.378906 284.011719 363.699219 283.5625 364.003906 C 283.109375 364.304688 282.644531 364.582031 282.167969 364.839844 C 281.6875 365.09375 281.199219 365.324219 280.695312 365.535156 C 280.195312 365.742188 279.683594 365.921875 279.164062 366.082031 C 278.644531 366.238281 278.121094 366.371094 277.589844 366.476562 C 277.054688 366.582031 276.519531 366.660156 275.980469 366.714844 C 275.441406 366.769531 274.898438 366.792969 274.355469 366.792969 Z M 274.355469 366.792969 " fill-opacity="1" fill-rule="nonzero"/></g><path fill="#79cab2" d="M 168.46875 148.449219 L 206.464844 148.449219 L 206.464844 207.523438 L 168.46875 207.523438 Z M 168.46875 148.449219 " fill-opacity="1" fill-rule="nonzero"/><path fill="#f8be57" d="M 254.914062 72.703125 C 254.914062 72.703125 252.234375 172.933594 187.882812 178 C 146.132812 174.726562 131.011719 139.09375 125.515625 114.261719 C 125.34375 113.523438 125.210938 112.777344 125.117188 112.023438 C 125.023438 111.269531 124.96875 110.515625 124.953125 109.753906 C 124.9375 108.996094 124.960938 108.238281 125.023438 107.480469 C 125.085938 106.726562 125.1875 105.972656 125.328125 105.226562 C 125.464844 104.480469 125.644531 103.746094 125.859375 103.015625 C 126.074219 102.289062 126.328125 101.574219 126.617188 100.871094 C 126.90625 100.171875 127.230469 99.484375 127.59375 98.816406 C 127.953125 98.148438 128.34375 97.5 128.773438 96.875 C 129.199219 96.246094 129.65625 95.640625 130.144531 95.0625 C 130.636719 94.480469 131.152344 93.925781 131.699219 93.398438 C 132.246094 92.871094 132.816406 92.375 133.414062 91.90625 C 134.011719 91.4375 134.632812 91 135.273438 90.597656 C 135.917969 90.191406 136.578125 89.824219 137.261719 89.488281 C 137.941406 89.152344 138.636719 88.851562 139.347656 88.585938 C 140.058594 88.320312 140.785156 88.09375 141.519531 87.90625 C 142.253906 87.714844 142.996094 87.5625 143.746094 87.449219 Z M 254.914062 72.703125 " fill-opacity="1" fill-rule="nonzero"/><path fill="#f8be57" d="M 182.171875 264.742188 L 119.132812 311.613281 C 118.382812 312.167969 117.734375 312.828125 117.195312 313.589844 C 116.652344 314.351562 116.242188 315.175781 115.960938 316.070312 C 115.683594 316.960938 115.546875 317.875 115.558594 318.808594 C 115.566406 319.742188 115.71875 320.652344 116.015625 321.539062 C 116.316406 322.421875 116.742188 323.242188 117.300781 323.992188 C 117.855469 324.742188 118.515625 325.386719 119.277344 325.929688 C 120.039062 326.472656 120.863281 326.882812 121.757812 327.160156 C 122.648438 327.441406 123.5625 327.574219 124.496094 327.566406 L 250.519531 327.566406 C 251.453125 327.574219 252.367188 327.441406 253.257812 327.160156 C 254.148438 326.882812 254.976562 326.472656 255.738281 325.929688 C 256.496094 325.386719 257.15625 324.742188 257.714844 323.992188 C 258.269531 323.242188 258.699219 322.421875 258.996094 321.539062 C 259.292969 320.652344 259.445312 319.742188 259.457031 318.808594 C 259.464844 317.875 259.332031 316.960938 259.050781 316.070312 C 258.769531 315.175781 258.359375 314.351562 257.820312 313.589844 C 257.277344 312.828125 256.632812 312.167969 255.882812 311.613281 L 192.734375 264.742188 C 191.972656 264.175781 191.136719 263.738281 190.234375 263.441406 C 189.332031 263.140625 188.40625 262.992188 187.453125 262.992188 C 186.5 262.992188 185.574219 263.140625 184.671875 263.441406 C 183.765625 263.738281 182.933594 264.175781 182.171875 264.742188 Z M 182.171875 264.742188 " fill-opacity="1" fill-rule="nonzero"/><path fill="#f8be57" d="M 193.914062 209.773438 C 193.914062 210.199219 193.875 210.621094 193.789062 211.039062 C 193.707031 211.457031 193.585938 211.863281 193.421875 212.257812 C 193.257812 212.652344 193.058594 213.023438 192.820312 213.378906 C 192.585938 213.734375 192.316406 214.0625 192.015625 214.363281 C 191.714844 214.664062 191.386719 214.933594 191.03125 215.167969 C 190.675781 215.40625 190.304688 215.605469 189.910156 215.769531 C 189.515625 215.933594 189.109375 216.054688 188.691406 216.136719 C 188.273438 216.222656 187.851562 216.261719 187.425781 216.261719 C 187 216.261719 186.578125 216.222656 186.160156 216.136719 C 185.742188 216.054688 185.335938 215.933594 184.941406 215.769531 C 184.550781 215.605469 184.175781 215.40625 183.820312 215.167969 C 183.46875 214.933594 183.140625 214.664062 182.835938 214.363281 C 182.535156 214.0625 182.269531 213.734375 182.03125 213.378906 C 181.792969 213.023438 181.59375 212.652344 181.429688 212.257812 C 181.269531 211.863281 181.144531 211.457031 181.0625 211.039062 C 180.980469 210.621094 180.9375 210.199219 180.9375 209.773438 C 180.9375 207.09375 184.503906 195.695312 186.300781 190.039062 C 186.367188 189.792969 186.5 189.59375 186.703125 189.441406 C 186.90625 189.289062 187.132812 189.210938 187.386719 189.210938 C 187.640625 189.210938 187.867188 189.289062 188.070312 189.441406 C 188.269531 189.59375 188.40625 189.792969 188.472656 190.039062 C 190.375 195.695312 193.914062 207.011719 193.914062 209.773438 Z M 193.914062 209.773438 " fill-opacity="1" fill-rule="nonzero"/><path fill="#e6e8f5" d="M 141.441406 138.582031 C 127.390625 116.542969 117.953125 56.910156 117.550781 54.390625 L 122.914062 53.558594 C 122.914062 54.175781 132.59375 114.613281 146.054688 135.6875 Z M 141.441406 138.582031 " fill-opacity="1" fill-rule="nonzero"/><path fill="#e6e8f5" d="M 160.828125 172.664062 C 155.726562 165.332031 151.191406 157.664062 147.234375 149.65625 L 152.003906 147.246094 C 155.824219 154.925781 160.167969 162.300781 165.035156 169.367188 Z M 160.828125 172.664062 " fill-opacity="1" fill-rule="nonzero"/></svg>