<svg xmlns="http://www.w3.org/2000/svg" xmlns:xlink="http://www.w3.org/1999/xlink" width="500" zoomAndPan="magnify" viewBox="0 0 375 374.999991" height="500" preserveAspectRatio="xMidYMid meet" version="1.0"><defs><clipPath id="04dcc64b58"><path d="M 37.5 37.5 L 141 37.5 L 141 141 L 37.5 141 Z M 37.5 37.5 " clip-rule="nonzero"/></clipPath><clipPath id="3f2e595e63"><path d="M 234 234 L 337.5 234 L 337.5 337.5 L 234 337.5 Z M 234 234 " clip-rule="nonzero"/></clipPath><clipPath id="c2d29fc43b"><path d="M 37.5 234 L 141 234 L 141 337.5 L 37.5 337.5 Z M 37.5 234 " clip-rule="nonzero"/></clipPath><clipPath id="fb702a88a0"><path d="M 234 37.5 L 337.5 37.5 L 337.5 141 L 234 141 Z M 234 37.5 " clip-rule="nonzero"/></clipPath></defs><g clip-path="url(#04dcc64b58)"><path fill="#ffffff" d="M 42.671875 140.949219 C 45.53125 140.949219 47.84375 138.636719 47.84375 135.777344 L 47.84375 47.84375 L 135.777344 47.84375 C 138.636719 47.84375 140.949219 45.53125 140.949219 42.671875 C 140.949219 39.8125 138.636719 37.5 135.777344 37.5 L 42.671875 37.5 C 39.8125 37.5 37.5 39.8125 37.5 42.671875 L 37.5 135.777344 C 37.5 138.636719 39.8125 140.949219 42.671875 140.949219 Z M 42.671875 140.949219 " fill-opacity="1" fill-rule="nonzero"/></g><g clip-path="url(#3f2e595e63)"><path fill="#ffffff" d="M 332.328125 234.050781 C 329.46875 234.050781 327.15625 236.363281 327.15625 239.222656 L 327.15625 327.15625 L 239.222656 327.15625 C 236.363281 327.15625 234.050781 329.46875 234.050781 332.328125 C 234.050781 335.1875 236.367188 337.5 239.222656 337.5 L 332.328125 337.5 C 335.1875 337.5 337.5 335.1875 337.5 332.328125 L 337.5 239.222656 C 337.5 236.363281 335.1875 234.050781 332.328125 234.050781 Z M 332.328125 234.050781 " fill-opacity="1" fill-rule="nonzero"/></g><g clip-path="url(#c2d29fc43b)"><path fill="#ffffff" d="M 42.671875 337.5 L 135.777344 337.5 C 142.503906 337.464844 142.570312 327.191406 135.777344 327.15625 C 135.777344 327.15625 47.84375 327.15625 47.84375 327.15625 L 47.84375 239.222656 C 47.84375 232.503906 37.515625 232.429688 37.5 239.222656 C 37.5 239.222656 37.5 332.328125 37.5 332.328125 C 37.5 335.1875 39.8125 337.5 42.671875 337.5 Z M 42.671875 337.5 " fill-opacity="1" fill-rule="nonzero"/></g><g clip-path="url(#fb702a88a0)"><path fill="#ffffff" d="M 332.328125 37.5 L 239.222656 37.5 C 232.496094 37.535156 232.429688 47.808594 239.222656 47.84375 C 239.222656 47.84375 327.15625 47.84375 327.15625 47.84375 L 327.15625 135.777344 C 327.15625 142.496094 337.484375 142.570312 337.5 135.777344 C 337.5 135.777344 337.5 42.671875 337.5 42.671875 C 337.5 39.8125 335.1875 37.5 332.328125 37.5 Z M 332.328125 37.5 " fill-opacity="1" fill-rule="nonzero"/></g><path fill="#ffffff" d="M 187.5 78.878906 C 118.171875 81.019531 118.191406 181.644531 187.5 183.777344 C 256.828125 181.632812 256.808594 81.011719 187.5 78.878906 Z M 187.5 78.878906 " fill-opacity="1" fill-rule="nonzero"/><path fill="#ffffff" d="M 182.328125 205.1875 C 135.929688 205.035156 99.125 244.828125 101.742188 290.949219 C 101.742188 293.84375 104.121094 296.121094 106.914062 296.121094 L 268.085938 296.121094 C 273.800781 295.984375 273.429688 289.980469 273.257812 285.777344 C 273.542969 236.988281 230.09375 200.640625 182.328125 205.1875 Z M 182.328125 205.1875 " fill-opacity="1" fill-rule="nonzero"/></svg>